<svg width="2876" height="2876" viewBox="0 0 2876 2876" fill="none" xmlns="http://www.w3.org/2000/svg">
<path d="M1666.9 2301.99C1686.85 2267.94 1710.93 2250.91 1739.14 2250.91C1755.2 2250.91 1767.11 2255.78 1774.9 2265.51C1782.68 2274.75 1786.57 2285.21 1786.57 2296.88C1786.57 2306.13 1784.14 2313.67 1779.27 2319.5C1774.9 2325.34 1767.84 2328.26 1758.11 2328.26C1750.33 2328.26 1744.49 2326.56 1740.6 2323.15C1737.2 2319.26 1734.28 2314.88 1731.84 2310.02C1729.9 2305.15 1727.47 2301.02 1724.55 2297.61C1721.63 2293.72 1716.76 2291.78 1709.95 2291.78C1701.2 2291.78 1692.93 2297.13 1685.14 2307.83C1677.36 2318.04 1670.79 2331.91 1665.44 2349.42C1660.58 2366.93 1658.15 2386.88 1658.15 2409.26V2578.54C1658.15 2588.76 1659.61 2596.06 1662.52 2600.43C1665.93 2604.81 1672.74 2607.49 1682.96 2608.46L1702.66 2610.65C1708.01 2611.62 1710.68 2614.3 1710.68 2618.68C1710.68 2624.51 1707.04 2627.43 1699.74 2627.43H1576.42C1569.12 2627.43 1565.48 2624.76 1565.48 2619.41C1565.48 2615.03 1568.64 2612.11 1574.96 2610.65L1583.72 2609.19C1593.93 2607.25 1600.5 2604.33 1603.42 2600.43C1606.82 2596.06 1608.53 2588.76 1608.53 2578.54V2333.37C1608.53 2324.61 1607.07 2318.77 1604.15 2315.86C1601.72 2312.45 1597.1 2310.26 1590.29 2309.29L1574.96 2307.1C1568.64 2306.61 1565.48 2303.94 1565.48 2299.07C1565.48 2295.18 1569.37 2292.51 1577.15 2291.05C1592.23 2288.61 1603.66 2284.72 1611.45 2279.37C1619.72 2274.02 1628.23 2267.45 1636.99 2259.67C1641.36 2255.29 1645.01 2253.1 1647.93 2253.1C1652.31 2253.1 1654.5 2256.02 1654.5 2261.86V2301.26C1654.5 2304.67 1655.96 2306.86 1658.88 2307.83C1661.79 2308.32 1664.47 2306.37 1666.9 2301.99Z" fill="#E8E8E8"/>
<path d="M1435.25 2634C1411.9 2634 1390.98 2626.22 1372.5 2610.65C1354.01 2595.08 1339.17 2573.19 1327.98 2544.98C1317.28 2516.28 1311.93 2483.2 1311.93 2445.74C1311.93 2407.31 1317.53 2373.5 1328.71 2344.31C1339.9 2315.13 1355.23 2292.26 1374.69 2275.72C1394.14 2259.18 1415.79 2250.91 1439.63 2250.91C1468.33 2250.91 1491.44 2262.83 1508.95 2286.67C1526.95 2310.02 1535.95 2348.21 1535.95 2401.23C1535.95 2417.28 1529.87 2425.31 1517.7 2425.31H1379.06C1369.33 2425.31 1364.47 2430.9 1364.47 2442.09C1364.47 2493.66 1372.01 2532.33 1387.09 2558.11C1402.17 2583.9 1421.39 2596.79 1444.74 2596.79C1463.22 2596.79 1478.3 2590.22 1489.98 2577.08C1501.65 2563.95 1511.14 2541.82 1518.43 2510.68C1519.89 2505.33 1523.06 2502.66 1527.92 2502.66C1533.76 2502.66 1535.95 2507.52 1534.49 2517.25C1526.7 2560.54 1514.3 2590.95 1497.27 2608.46C1480.25 2625.49 1459.57 2634 1435.25 2634ZM1376.87 2407.07H1450.57C1473.92 2407.07 1485.6 2394.91 1485.6 2370.58C1485.6 2338.96 1481.71 2314.15 1473.92 2296.15C1466.14 2278.15 1454.46 2269.16 1438.9 2269.16C1419.93 2269.16 1403.87 2280.1 1390.74 2301.99C1378.09 2323.88 1369.82 2355.02 1365.93 2395.39C1364.96 2403.18 1368.6 2407.07 1376.87 2407.07Z" fill="#E8E8E8"/>
<path d="M1213.58 2634C1196.55 2634 1182.44 2628.16 1171.25 2616.49C1160.55 2604.33 1155.2 2584.62 1155.2 2557.38V2284.48C1155.2 2278.64 1152.28 2275.72 1146.45 2275.72H1125.28C1117.5 2275.72 1113.61 2272.8 1113.61 2266.97C1113.61 2263.07 1115.8 2259.67 1120.18 2256.75C1136.23 2245.56 1149.12 2233.64 1158.85 2221C1168.58 2207.86 1177.09 2190.11 1184.39 2167.73C1187.79 2157.51 1191.93 2152.41 1196.79 2152.41C1202.15 2152.41 1204.82 2156.3 1204.82 2164.08V2245.08C1204.82 2251.89 1208.23 2255.29 1215.04 2255.29H1262.47C1270.25 2255.29 1274.14 2258.7 1274.14 2265.51C1274.14 2272.32 1270.25 2275.72 1262.47 2275.72H1215.04C1208.23 2275.72 1204.82 2279.13 1204.82 2285.94V2558.11C1204.82 2568.82 1206.52 2577.33 1209.93 2583.65C1213.33 2589.49 1219.66 2592.41 1228.9 2592.41C1239.12 2592.41 1247.39 2587.3 1253.71 2577.08C1260.52 2566.87 1264.9 2550.33 1266.84 2527.47C1267.82 2520.66 1270.98 2517.25 1276.33 2517.25C1282.17 2517.25 1285.09 2520.9 1285.09 2528.2C1283.63 2565.65 1275.84 2592.65 1261.74 2609.19C1248.12 2625.73 1232.06 2634 1213.58 2634Z" fill="#E8E8E8"/>
<path d="M1037.57 2634C1020.54 2634 1006.43 2628.16 995.246 2616.49C984.544 2604.33 979.193 2584.62 979.193 2557.38V2284.48C979.193 2278.64 976.274 2275.72 970.437 2275.72H949.276C941.492 2275.72 937.601 2272.8 937.601 2266.97C937.601 2263.07 939.79 2259.67 944.168 2256.75C960.221 2245.56 973.112 2233.64 982.841 2221C992.571 2207.86 1001.08 2190.11 1008.38 2167.73C1011.79 2157.51 1015.92 2152.41 1020.79 2152.41C1026.14 2152.41 1028.81 2156.3 1028.81 2164.08V2245.08C1028.81 2251.89 1032.22 2255.29 1039.03 2255.29H1086.46C1094.24 2255.29 1098.13 2258.7 1098.13 2265.51C1098.13 2272.32 1094.24 2275.72 1086.46 2275.72H1039.03C1032.22 2275.72 1028.81 2279.13 1028.81 2285.94V2558.11C1028.81 2568.82 1030.51 2577.33 1033.92 2583.65C1037.32 2589.49 1043.65 2592.41 1052.89 2592.41C1063.11 2592.41 1071.38 2587.3 1077.7 2577.08C1084.51 2566.87 1088.89 2550.33 1090.84 2527.47C1091.81 2520.66 1094.97 2517.25 1100.32 2517.25C1106.16 2517.25 1109.08 2520.9 1109.08 2528.2C1107.62 2565.65 1099.84 2592.65 1085.73 2609.19C1072.11 2625.73 1056.05 2634 1037.57 2634Z" fill="#E8E8E8"/>
<path d="M730.693 2634C710.262 2634 693.479 2627.68 680.345 2615.03C667.21 2601.89 660.643 2584.62 660.643 2563.22C660.643 2542.3 667.21 2522.6 680.345 2504.12C693.479 2485.14 711.478 2468.12 734.342 2453.04C757.205 2437.96 783.231 2425.8 812.419 2416.55C818.743 2414.61 821.905 2410.47 821.905 2404.15V2337.75C821.905 2314.4 818.256 2297.86 810.959 2288.13C803.662 2277.91 793.69 2272.8 781.042 2272.8C768.88 2272.8 757.692 2278.4 747.476 2289.59C737.747 2300.29 730.693 2318.53 726.315 2344.31C723.883 2359.88 718.532 2371.31 710.262 2378.61C702.479 2385.42 694.452 2388.82 686.182 2388.82C672.561 2388.82 665.751 2382.01 665.751 2368.39C665.751 2354.29 669.643 2340.42 677.426 2326.8C685.696 2312.69 696.398 2300.05 709.532 2288.86C722.667 2277.18 737.017 2267.94 752.584 2261.13C768.151 2254.32 783.717 2250.91 799.284 2250.91C847.444 2250.91 871.523 2278.88 871.523 2334.83V2558.11C871.523 2578.54 876.631 2588.76 886.847 2588.76C893.171 2588.76 899.008 2584.62 904.36 2576.35C909.711 2567.6 912.386 2553 912.386 2532.57C912.386 2524.79 915.548 2520.9 921.872 2520.9C927.71 2520.9 930.628 2525.03 930.628 2533.3C930.628 2568.81 924.304 2594.6 911.656 2610.65C899.495 2626.22 885.631 2634 870.064 2634C858.389 2634 849.146 2629.38 842.336 2620.14C835.525 2610.41 830.904 2598.98 828.472 2585.84C827.985 2580.98 825.796 2578.54 821.905 2578.54C818.499 2578.06 815.094 2580.25 811.689 2585.11C800.014 2601.16 788.096 2613.33 775.934 2621.6C763.773 2629.87 748.692 2634 730.693 2634ZM750.395 2600.43C763.043 2600.43 774.718 2596.06 785.42 2587.3C796.122 2578.06 804.878 2565.9 811.689 2550.82C818.499 2535.74 821.905 2518.71 821.905 2499.74V2446.47C821.905 2437.23 816.797 2434.55 806.581 2438.44C776.907 2449.15 753.8 2463.98 737.26 2482.95C721.207 2501.44 713.181 2523.82 713.181 2550.09C713.181 2583.65 725.585 2600.43 750.395 2600.43Z" fill="#E8E8E8"/>
<path d="M387.71 2620.14C385.765 2620.14 383.576 2619.41 381.143 2617.95C378.711 2616.49 377.008 2613.33 376.035 2608.46L265.852 2161.16C265.366 2157.76 263.906 2156.3 261.474 2156.78C259.042 2156.78 257.826 2158.49 257.826 2161.89L243.232 2564.68C242.745 2578.3 244.934 2588.76 249.799 2596.06C254.664 2602.87 263.177 2607.25 275.338 2609.19L284.824 2610.65C291.148 2611.14 294.31 2614.06 294.31 2619.41C294.31 2624.76 290.662 2627.43 283.365 2627.43H179.019C171.722 2627.43 168.074 2624.76 168.074 2619.41C168.074 2614.06 171.236 2611.14 177.56 2610.65L187.046 2609.19C199.694 2607.25 208.207 2602.87 212.585 2596.06C217.449 2588.76 220.125 2578.3 220.611 2564.68L235.205 2150.22C235.692 2140 234.232 2133.19 230.827 2129.78C227.422 2126.38 220.125 2123.7 208.936 2121.76L192.154 2118.84C185.83 2117.38 182.668 2114.46 182.668 2110.08C182.668 2104.73 186.316 2102.06 193.613 2102.06H281.176C296.256 2102.06 305.499 2109.35 308.904 2123.95L397.196 2488.06C398.169 2491.47 399.629 2493.17 401.575 2493.17C404.007 2493.17 405.466 2491.47 405.953 2488.06L497.894 2120.3C500.812 2108.14 508.596 2102.06 521.244 2102.06H607.347C614.644 2102.06 618.293 2104.73 618.293 2110.08C618.293 2114.46 615.131 2117.38 608.807 2118.84L592.024 2121.76C581.808 2123.7 574.998 2126.38 571.592 2129.78C568.187 2133.19 566.728 2140 567.214 2150.22L581.808 2579.27C582.294 2589.49 583.997 2596.3 586.916 2599.71C589.835 2603.11 596.402 2605.79 606.617 2607.73L623.4 2610.65C629.724 2612.11 632.886 2615.03 632.886 2619.41C632.886 2624.76 629.238 2627.43 621.941 2627.43H489.867C482.57 2627.43 478.922 2624.76 478.922 2619.41C478.922 2615.03 482.084 2612.11 488.408 2610.65L505.191 2607.73C515.406 2605.79 522.217 2603.11 525.622 2599.71C529.027 2596.3 530.486 2589.49 530 2579.27L517.595 2161.89C517.595 2158.49 516.379 2156.78 513.947 2156.78C512.001 2156.3 510.542 2157.51 509.569 2160.43L398.656 2608.46C397.683 2613.33 395.98 2616.49 393.548 2617.95C391.602 2619.41 389.656 2620.14 387.71 2620.14Z" fill="#E8E8E8"/>
<path d="M1530.53 1685C1509.13 1685 1489.67 1677.95 1472.16 1663.84C1455.13 1649.25 1441.51 1628.57 1431.29 1601.82C1421.08 1575.06 1415.97 1543.2 1415.97 1506.23C1415.97 1464.88 1422.05 1428.88 1434.21 1398.23C1446.86 1367.59 1463.89 1343.99 1485.29 1327.45C1506.69 1310.43 1530.53 1301.91 1556.8 1301.91C1579.18 1301.91 1596.69 1306.29 1609.34 1315.05C1614.2 1318.45 1616.63 1323.8 1616.63 1331.1L1618.09 1420.12C1618.09 1427.42 1615.17 1431.07 1609.34 1431.07C1603.99 1431.07 1600.58 1427.91 1599.12 1421.58C1592.31 1394.83 1585.74 1374.15 1579.42 1359.56C1573.1 1344.96 1566.53 1334.99 1559.72 1329.64C1552.91 1323.8 1545.37 1320.89 1537.1 1320.89C1527.37 1320.89 1517.15 1326.48 1506.45 1337.67C1496.24 1348.86 1487.48 1367.1 1480.18 1392.39C1473.37 1417.2 1469.97 1450.04 1469.97 1490.9C1469.97 1542.95 1476.53 1582.11 1489.67 1608.38C1503.29 1634.65 1520.8 1647.79 1542.21 1647.79C1559.23 1647.79 1573.34 1640.73 1584.53 1626.63C1596.2 1612.52 1606.18 1586.98 1614.44 1550.01C1615.9 1544.66 1618.82 1541.98 1623.2 1541.98C1629.04 1541.98 1631.23 1546.85 1629.77 1556.57C1624.42 1590.63 1616.88 1617.14 1607.15 1636.11C1597.91 1654.6 1586.72 1667.49 1573.58 1674.78C1560.93 1681.6 1546.58 1685 1530.53 1685Z" fill="#E8E8E8"/>
<path d="M1319.9 1236.97C1309.69 1236.97 1300.93 1233.32 1293.63 1226.03C1286.82 1218.73 1283.42 1209.49 1283.42 1198.3C1283.42 1187.11 1286.82 1178.11 1293.63 1171.3C1300.93 1164 1309.69 1160.35 1319.9 1160.35C1330.12 1160.35 1338.63 1164 1345.44 1171.3C1352.25 1178.11 1355.66 1187.11 1355.66 1198.3C1355.66 1209.49 1352.25 1218.73 1345.44 1226.03C1338.63 1233.32 1330.12 1236.97 1319.9 1236.97ZM1258.61 1678.43C1251.31 1678.43 1247.66 1675.76 1247.66 1670.41C1247.66 1666.03 1250.82 1663.11 1257.15 1661.65L1265.9 1660.19C1278.07 1658.25 1285.85 1655.33 1289.25 1651.43C1292.66 1647.06 1294.36 1639.76 1294.36 1629.54V1384.37C1294.36 1375.61 1292.9 1369.77 1289.98 1366.86C1287.55 1363.45 1282.93 1361.26 1276.12 1360.29L1260.8 1358.1C1254.47 1357.61 1251.31 1354.94 1251.31 1350.07C1251.31 1346.18 1255.2 1343.51 1262.99 1342.05C1278.07 1339.61 1290.23 1335.72 1299.47 1330.37C1308.71 1325.02 1317.71 1318.45 1326.47 1310.67C1330.85 1306.29 1334.49 1304.1 1337.41 1304.1C1341.79 1304.1 1343.98 1307.02 1343.98 1312.86V1629.54C1343.98 1639.76 1345.44 1647.06 1348.36 1651.43C1351.28 1655.81 1356.87 1658.49 1365.14 1659.46L1383.38 1661.65C1388.74 1662.62 1391.41 1665.3 1391.41 1669.68C1391.41 1675.51 1387.76 1678.43 1380.47 1678.43H1258.61Z" fill="#E8E8E8"/>
<path d="M1155.14 1685C1138.12 1685 1124.01 1679.16 1112.82 1667.49C1102.12 1655.33 1096.77 1635.63 1096.77 1608.38V1335.48C1096.77 1329.64 1093.85 1326.72 1088.01 1326.72H1066.85C1059.07 1326.72 1055.18 1323.8 1055.18 1317.97C1055.18 1314.07 1057.37 1310.67 1061.74 1307.75C1077.8 1296.56 1090.69 1284.64 1100.42 1272C1110.15 1258.86 1118.66 1241.11 1125.96 1218.73C1129.36 1208.51 1133.5 1203.41 1138.36 1203.41C1143.71 1203.41 1146.39 1207.3 1146.39 1215.08V1296.08C1146.39 1302.89 1149.79 1306.29 1156.6 1306.29H1204.03C1211.82 1306.29 1215.71 1309.7 1215.71 1316.51C1215.71 1323.32 1211.82 1326.72 1204.03 1326.72H1156.6C1149.79 1326.72 1146.39 1330.13 1146.39 1336.94V1609.11C1146.39 1619.82 1148.09 1628.33 1151.5 1634.65C1154.9 1640.49 1161.23 1643.41 1170.47 1643.41C1180.68 1643.41 1188.95 1638.3 1195.28 1628.08C1202.09 1617.87 1206.47 1601.33 1208.41 1578.47C1209.39 1571.66 1212.55 1568.25 1217.9 1568.25C1223.74 1568.25 1226.65 1571.9 1226.65 1579.2C1225.2 1616.65 1217.41 1643.65 1203.3 1660.19C1189.68 1676.73 1173.63 1685 1155.14 1685Z" fill="#E8E8E8"/>
<path d="M898.146 1685C873.336 1685 850.959 1676.73 831.014 1660.19C811.556 1643.16 795.989 1620.06 784.314 1590.87C772.639 1561.68 766.802 1529.09 766.802 1493.09C766.802 1457.09 772.639 1424.74 784.314 1396.04C795.989 1367.34 811.799 1344.48 831.744 1327.45C851.689 1310.43 873.823 1301.91 898.146 1301.91C922.955 1301.91 945.089 1310.43 964.548 1327.45C984.493 1344.48 1000.3 1367.34 1011.98 1396.04C1023.65 1424.74 1029.49 1457.09 1029.49 1493.09C1029.49 1529.09 1023.65 1561.68 1011.98 1590.87C1000.79 1620.06 985.222 1643.16 965.277 1660.19C945.333 1676.73 922.955 1685 898.146 1685ZM898.146 1666.76C948.738 1666.76 974.034 1608.87 974.034 1493.09C974.034 1377.8 948.738 1320.16 898.146 1320.16C847.554 1320.16 822.258 1377.8 822.258 1493.09C822.258 1608.87 847.554 1666.76 898.146 1666.76Z" fill="#E8E8E8"/>
<path d="M654.139 1678.43C647.328 1678.43 643.923 1676 643.923 1671.14C643.923 1666.27 647.085 1663.11 653.409 1661.65L664.354 1659.46C678.948 1656.06 682.84 1648.03 676.029 1635.38L624.221 1533.23C622.276 1529.82 619.843 1528.12 616.925 1528.12C614.492 1527.63 612.303 1529.33 610.357 1533.23L562.928 1622.25C552.225 1642.68 553.928 1654.35 568.035 1657.27L587.007 1661.65C593.331 1663.11 596.493 1666.27 596.493 1671.14C596.493 1676 593.088 1678.43 586.278 1678.43H492.877C486.067 1678.43 482.662 1675.76 482.662 1670.41C482.662 1665.06 485.58 1661.65 491.418 1660.19L500.174 1658C509.417 1655.57 517.2 1651.92 523.524 1647.06C529.848 1641.71 537.875 1630.03 547.604 1612.03L601.601 1512.79C605.493 1505.5 605.979 1498.44 603.06 1491.63L533.74 1355.18C528.389 1343.99 523.768 1336.45 519.876 1332.56C516.471 1328.67 512.336 1326.24 507.471 1325.26L496.526 1323.07C490.202 1321.62 487.04 1318.45 487.04 1313.59C487.04 1308.72 490.445 1306.29 497.255 1306.29H605.25C612.06 1306.29 615.465 1308.72 615.465 1313.59C615.465 1318.45 612.303 1321.62 605.979 1323.07L595.034 1325.26C580.44 1328.67 576.548 1336.7 583.359 1349.34L632.978 1445.66C634.924 1449.07 637.113 1450.77 639.545 1450.77C641.977 1450.77 644.166 1449.07 646.112 1445.66L689.894 1362.48C700.596 1342.05 698.893 1330.37 684.786 1327.45L665.814 1323.07C659.49 1321.62 656.328 1318.45 656.328 1313.59C656.328 1308.72 659.733 1306.29 666.544 1306.29H759.944C766.754 1306.29 770.16 1308.97 770.16 1314.32C770.16 1319.67 767.241 1323.07 761.403 1324.53L752.647 1326.72C743.404 1328.67 735.621 1332.32 729.297 1337.67C722.973 1342.53 714.946 1354.21 705.217 1372.69L654.868 1466.09C650.49 1473.39 650.247 1480.93 654.139 1488.71L725.648 1629.54C731.486 1641.22 736.107 1649 739.513 1652.89C742.918 1656.3 747.053 1658.49 751.917 1659.46L762.863 1661.65C769.187 1663.11 772.349 1666.27 772.349 1671.14C772.349 1676 768.943 1678.43 762.133 1678.43H654.139Z" fill="#E8E8E8"/>
<path d="M182.668 1678.43C175.371 1678.43 171.722 1675.76 171.722 1670.41C171.722 1666.03 174.884 1663.11 181.208 1661.65L197.991 1658.73C208.207 1656.79 214.774 1654.11 217.693 1650.71C221.098 1647.3 222.8 1640.49 222.8 1630.27V1201.22C222.8 1191 221.098 1184.19 217.693 1180.78C214.774 1177.38 208.207 1174.7 197.991 1172.76L181.208 1169.84C174.884 1168.38 171.722 1165.46 171.722 1161.08C171.722 1155.73 175.371 1153.06 182.668 1153.06H427.843C439.032 1153.06 445.113 1158.65 446.086 1169.84L451.923 1290.97C452.896 1299.24 449.734 1303.37 442.437 1303.37C436.6 1303.37 433.194 1300.21 432.222 1293.89L427.843 1266.89C422.492 1233.81 411.547 1209.73 395.007 1194.65C378.468 1179.08 355.604 1171.3 326.416 1171.3C306.958 1171.3 293.337 1174.22 285.554 1180.06C278.257 1185.41 274.608 1195.14 274.608 1209.24V1385.1C274.608 1391.91 278.014 1395.31 284.824 1395.31H321.309C342.713 1395.31 355.847 1383.88 360.712 1361.02L368.009 1324.53C369.955 1317.24 374.09 1314.07 380.414 1315.05C385.765 1316.02 388.44 1320.16 388.44 1327.45V1491.63C388.44 1498.93 385.765 1503.06 380.414 1504.04C374.09 1505.01 369.955 1501.85 368.009 1494.55L360.712 1458.8C357.307 1441.77 352.442 1430.58 346.118 1425.23C340.281 1419.88 331.768 1417.2 320.579 1417.2H284.824C278.014 1417.2 274.608 1420.61 274.608 1427.42V1610.57C274.608 1628.08 278.987 1640.73 287.743 1648.52C296.986 1656.3 313.525 1660.19 337.362 1660.19C361.685 1660.19 382.359 1654.11 399.385 1641.95C416.898 1629.3 429.06 1605.95 435.87 1571.9L444.626 1528.85C446.086 1522.52 449.734 1519.36 455.572 1519.36C462.382 1519.36 465.301 1523.5 464.328 1531.77L457.031 1661.65C456.058 1672.84 449.977 1678.43 438.789 1678.43H182.668Z" fill="#E8E8E8"/>
</svg>
